<?xml version="1.0" standalone="no"?>
<!DOCTYPE svg PUBLIC "-//W3C//DTD SVG 20010904//EN"
 "http://www.w3.org/TR/2001/REC-SVG-20010904/DTD/svg10.dtd">
<svg version="1.0" xmlns="http://www.w3.org/2000/svg"
 width="1755.000000pt" height="1624.000000pt" viewBox="0 0 1755.000000 1624.000000"
 preserveAspectRatio="xMidYMid meet">

<g transform="translate(0.000000,1624.000000) scale(0.100000,-0.100000)"
fill="#000000" stroke="none">
<path d="M0 8120 l0 -8120 8775 0 8775 0 0 8120 0 8120 -8775 0 -8775 0 0
-8120z m7971 2598 c574 -781 1049 -1421 1054 -1421 6 -1 483 639 1060 1421
l1050 1421 1423 1 1422 0 0 -4235 0 -4235 -1420 0 -1420 0 -2 1426 -3 1425
-1053 -1425 c-580 -784 -1055 -1426 -1056 -1426 -2 0 -473 639 -1047 1420
l-1044 1420 -3 -1420 -2 -1420 -1415 0 -1415 0 0 2935 0 2935 -490 0 -490 0 0
1300 0 1300 1903 0 1902 0 1046 -1422z"/>
</g>
</svg>
